<svg width="64" height="64" viewBox="0 0 64 64" fill="none" xmlns="http://www.w3.org/2000/svg">
<path d="M0 48.1723C0 50.8195 2.14588 52.9655 4.79313 52.9655H59.2069C61.854 52.9655 64 50.8196 64 48.1723V44.1378H0V48.1723Z" fill="#C8414B"/>
<path d="M59.2069 11.0345H4.79313C2.14588 11.0345 0 13.1804 0 15.8276V19.8621H64V15.8276C64 13.1804 61.8541 11.0345 59.2069 11.0345Z" fill="#C8414B"/>
<path d="M64 19.8625H0V44.1387H64V19.8625Z" fill="#FFD250"/>
<path d="M27.0346 32L27.9702 27.7899C28.0565 27.4021 27.7613 27.0344 27.3641 27.0344H26.7051C26.308 27.0344 26.013 27.4022 26.099 27.7899L27.0346 32Z" fill="#C8414B"/>
<path d="M28.138 29.7925H25.9312V39.1713H28.138V29.7925Z" fill="#F5F5F5"/>
<path d="M28.6893 28.69H25.3789V29.7935H28.6893V28.69Z" fill="#FAB446"/>
<path d="M28.6899 32H23.1724V33.1035H28.6899V32Z" fill="#C8414B"/>
<path d="M28.6898 36.4137L25.3794 35.3103V34.2068L28.6898 35.3103V36.4137Z" fill="#C8414B"/>
<path d="M10.4828 32L11.4185 27.7899C11.5047 27.4021 11.2096 27.0344 10.8123 27.0344H10.1533C9.75621 27.0344 9.46121 27.4022 9.54721 27.7899L10.4828 32Z" fill="#C8414B"/>
<path d="M14.3447 28.6896C13.7353 28.6896 13.2412 29.1838 13.2412 29.7931V36.9655C13.2412 38.3061 14.4925 40.8276 18.7585 40.8276C23.0245 40.8276 24.2757 38.3063 24.2757 36.9655V29.7931C24.2757 29.1838 23.7816 28.6896 23.1722 28.6896H14.3447Z" fill="#F5F5F5"/>
<path d="M18.7585 34.2069H13.2412V29.7931C13.2412 29.1838 13.7353 28.6896 14.3447 28.6896H18.7585V34.2069Z" fill="#C8414B"/>
<path d="M18.7583 34.2069H24.2756V36.9655C24.2756 38.4891 23.0406 39.7241 21.5169 39.7241C19.9933 39.7241 18.7583 38.4891 18.7583 36.9655V34.2069Z" fill="#C8414B"/>
<path d="M13.2412 34.2069H18.7585V36.9655C18.7585 38.4891 17.5235 39.7241 15.9998 39.7241C14.4762 39.7241 13.2412 38.4891 13.2412 36.9655V34.2069Z" fill="#FAB446"/>
<path d="M17.6553 39.16V34.2069H16.5518V39.6685C16.9623 39.5853 17.3331 39.4035 17.6553 39.16Z" fill="#C8414B"/>
<path d="M15.4482 39.6685V34.2069H14.3447V39.16C14.667 39.4035 15.0379 39.5853 15.4482 39.6685Z" fill="#C8414B"/>
<path d="M17.6556 32H14.3452V33.1035H17.6556V32Z" fill="#FFB441"/>
<path d="M17.6556 29.7925H14.3452V30.896H17.6556V29.7925Z" fill="#FAB446"/>
<path d="M17.1034 30.4488H14.8965V32.4478H17.1034V30.4488Z" fill="#FAB446"/>
<path d="M11.5858 29.7925H9.37891V39.1713H11.5858V29.7925Z" fill="#F5F5F5"/>
<path d="M12.138 38.6212H8.82764V39.7247H12.138V38.6212Z" fill="#FAB446"/>
<path d="M12.138 28.69H8.82764V29.7935H12.138V28.69Z" fill="#FAB446"/>
<path d="M12.6901 39.7238H8.27637V40.8273H12.6901V39.7238Z" fill="#5064AA"/>
<path d="M29.2415 38.6212H25.9312V39.7247H29.2415V38.6212Z" fill="#FAB446"/>
<path d="M29.2414 39.7238H24.8276V40.8273H29.2414V39.7238Z" fill="#5064AA"/>
<path d="M22.0695 27.5862H15.4487V28.6897H22.0695V27.5862Z" fill="#FAB446"/>
<path d="M19.311 24.2762H18.2075V27.5866H19.311V24.2762Z" fill="#FFB441"/>
<path d="M17.6551 25.931C16.7424 25.931 16 25.1885 16 24.2759C16 23.3631 16.7425 22.6208 17.6551 22.6208C18.5679 22.6208 19.3102 23.3633 19.3102 24.2759C19.3104 25.1885 18.5679 25.931 17.6551 25.931ZM17.6551 23.7241C17.3507 23.7241 17.1034 23.9714 17.1034 24.2759C17.1034 24.5803 17.3506 24.8276 17.6551 24.8276C17.9596 24.8276 18.2069 24.5804 18.2069 24.2759C18.2069 23.9715 17.9596 23.7241 17.6551 23.7241Z" fill="#F5F5F5"/>
<path d="M19.8622 25.931C18.9494 25.931 18.207 25.1885 18.207 24.2759C18.207 23.3631 18.9495 22.6208 19.8622 22.6208C20.7749 22.6208 21.5173 23.3633 21.5173 24.2759C21.5173 25.1885 20.7748 25.931 19.8622 25.931ZM19.8622 23.7241C19.5578 23.7241 19.3104 23.9714 19.3104 24.2759C19.3104 24.5803 19.5577 24.8276 19.8622 24.8276C20.1665 24.8276 20.4139 24.5804 20.4139 24.2759C20.4138 23.9715 20.1665 23.7241 19.8622 23.7241Z" fill="#F5F5F5"/>
<path d="M22.0687 27.0345C21.1559 27.0345 20.4136 26.292 20.4136 25.3794C20.4136 24.4666 21.1561 23.7242 22.0687 23.7242C22.9814 23.7242 23.7238 24.4667 23.7238 25.3794C23.7238 26.292 22.9813 27.0345 22.0687 27.0345ZM22.0687 24.8276C21.7643 24.8276 21.5169 25.0749 21.5169 25.3794C21.5169 25.6837 21.7642 25.9311 22.0687 25.9311C22.3731 25.9311 22.6204 25.6839 22.6204 25.3794C22.6204 25.0749 22.3731 24.8276 22.0687 24.8276Z" fill="#F5F5F5"/>
<path d="M15.4481 27.0345C14.5353 27.0345 13.793 26.292 13.793 25.3794C13.793 24.4666 14.5355 23.7242 15.4481 23.7242C16.3608 23.7242 17.1032 24.4667 17.1032 25.3794C17.1033 26.292 16.3608 27.0345 15.4481 27.0345ZM15.4481 24.8276C15.1437 24.8276 14.8963 25.0749 14.8963 25.3794C14.8963 25.6837 15.1436 25.9311 15.4481 25.9311C15.7526 25.9311 15.9998 25.6837 15.9998 25.3792C15.9998 25.0749 15.7526 24.8276 15.4481 24.8276Z" fill="#F5F5F5"/>
<path d="M22.0688 36.4137V36.9655C22.0688 37.2697 21.8213 37.5172 21.5171 37.5172C21.2128 37.5172 20.9653 37.2697 20.9653 36.9655V36.4137H22.0688ZM23.1722 35.3104H19.8618V36.9655C19.8618 37.8782 20.6043 38.6206 21.5169 38.6206C22.4297 38.6206 23.1721 37.8781 23.1721 36.9655V35.3104H23.1722Z" fill="#FAB446"/>
<path d="M21.5171 33.1035C20.9077 33.1035 20.4136 32.6094 20.4136 32V30.8965C20.4136 30.2871 20.9077 29.793 21.5171 29.793C22.1264 29.793 22.6206 30.2871 22.6206 30.8965V32C22.6206 32.6094 22.1264 33.1035 21.5171 33.1035Z" fill="#FFA0D2"/>
<path d="M18.7586 35.8614C19.6727 35.8614 20.4138 35.1203 20.4138 34.2062C20.4138 33.2921 19.6727 32.5511 18.7586 32.5511C17.8445 32.5511 17.1035 33.2921 17.1035 34.2062C17.1035 35.1203 17.8445 35.8614 18.7586 35.8614Z" fill="#5064AA"/>
<path d="M19.311 22.0688H18.2075V25.3791H19.311V22.0688Z" fill="#FAB446"/>
<path d="M15.4482 27.5863L14.3447 26.4828L14.9911 25.8364C15.9902 24.8373 17.3455 24.2759 18.7586 24.2759C20.1717 24.2759 21.5268 24.8373 22.5261 25.8364L23.1725 26.4828L22.069 27.5863H15.4482Z" fill="#C8414B"/>
<path d="M18.7588 27.0343C19.0635 27.0343 19.3105 26.7872 19.3105 26.4825C19.3105 26.1778 19.0635 25.9308 18.7588 25.9308C18.4541 25.9308 18.207 26.1778 18.207 26.4825C18.207 26.7872 18.4541 27.0343 18.7588 27.0343Z" fill="#FFD250"/>
<path d="M16.5513 27.0343C16.856 27.0343 17.103 26.7872 17.103 26.4825C17.103 26.1778 16.856 25.9308 16.5513 25.9308C16.2465 25.9308 15.9995 26.1778 15.9995 26.4825C15.9995 26.7872 16.2465 27.0343 16.5513 27.0343Z" fill="#FFD250"/>
<path d="M20.9648 27.0343C21.2696 27.0343 21.5166 26.7872 21.5166 26.4825C21.5166 26.1778 21.2696 25.9308 20.9648 25.9308C20.6601 25.9308 20.4131 26.1778 20.4131 26.4825C20.4131 26.7872 20.6601 27.0343 20.9648 27.0343Z" fill="#FFD250"/>
<path d="M14.3451 32H8.82764V33.1035H14.3451V32Z" fill="#C8414B"/>
<path d="M8.82861 36.4138L12.1389 35.3104V34.2069L8.82861 35.3104V36.4138Z" fill="#C8414B"/>
</svg>
